<svg fill="none" height="310" viewBox="0 0 755 310" width="755" xmlns="http://www.w3.org/2000/svg" xmlns:xlink="http://www.w3.org/1999/xlink"><clipPath id="a"><path d="m0 0h490.861v98h-490.861z"/></clipPath><clipPath id="b"><path d="m0 212h511.29v98h-511.29z"/></clipPath><g clip-path="url(#a)"><path d="m83.4041 84.362c5.0139 5.0474 1.4388 13.638-5.6757 13.638h-77.7284v-98h77.7285c7.1144 0 10.6895 8.59064 5.6756 13.638l-35.1274 35.362z" fill="#ff6c0a"/><path d="m104.952 49c0-27.062 21.938-49 49-49h182c27.062 0 49 21.938 49 49 0 27.062-21.938 49-49 49h-182c-27.062 0-49-21.938-49-49z" fill="#38393f"/><path d="m155.08 75h5.688v-13.536l10.728-10.872 19.368 24.408h7.128l-22.536-28.368 21.672-22.032h-7.416l-28.944 30.096v-30.096h-5.688zm62.746.864c11.232 0 19.512-8.928 19.512-19.44v-.144c0-10.512-8.208-19.296-19.368-19.296-11.232 0-19.44 8.928-19.44 19.44v.144c0 10.512 8.136 19.296 19.296 19.296zm.144-4.968c-7.848 0-13.752-6.48-13.752-14.472v-.144c0-7.848 5.544-14.4 13.608-14.4 7.848 0 13.824 6.552 13.824 14.544v.144c0 7.848-5.616 14.328-13.68 14.328zm38.987 4.752c2.664 0 4.752-.576 6.696-1.584v-4.752c-1.944.936-3.528 1.296-5.4 1.296-3.744 0-6.264-1.656-6.264-6.192v-21.744h11.808v-4.896h-11.808v-11.232h-5.544v11.232h-5.184v4.896h5.184v22.464c0 7.56 4.536 10.512 10.512 10.512zm14.277-.648h5.544v-52.56h-5.544zm15.674-45.36h6.336v-6.12h-6.336zm.36 45.36h5.544v-37.224h-5.544zm15.53 0h5.544v-21.312c0-6.984 4.752-11.664 11.16-11.664 6.552 0 10.296 4.32 10.296 11.232v21.744h5.544v-23.112c0-8.856-5.256-14.904-14.256-14.904-6.408 0-10.296 3.24-12.744 7.272v-6.48h-5.544z" fill="#fff"/><path d="m441.906 97.9547c27.037 0 48.955-21.9177 48.955-48.9546s-21.918-48.9546898-48.955-48.9546898-48.954 21.9177898-48.954 48.9546898 21.917 48.9546 48.954 48.9546z" fill="#6b70fc"/></g><path d="m47.1251 110.117c3.114-5.489 10.6358-5.489 13.7498 0l45.9701 81.04c3.206 5.652-.643 12.843-6.8748 12.843h-91.94042c-6.23188 0-10.08114-7.191-6.87486-12.843z" fill="#6b70fc"/><path d="m116 169.91h23.606c2.889 0 5.659 1.147 7.701 3.19 2.043 2.043 3.19 4.813 3.19 7.702v23.153h28.915v-23.148c-.001-1.43.28-2.847.827-4.17.547-1.322 1.349-2.523 2.361-3.535 1.011-1.012 2.212-1.815 3.534-2.363 1.322-.547 2.738-.829 4.169-.829h23.606v-29.814h-23.606c-2.888 0-5.659-1.148-7.701-3.19-2.043-2.043-3.19-4.813-3.19-7.702v-23.159h-28.915v23.159c0 2.889-1.147 5.659-3.19 7.702-2.042 2.042-4.812 3.19-7.701 3.19h-23.606z" fill="#45dbb7"/><path d="m221.909 155c0-27.062 21.938-49 49-49h435c27.062 0 49 21.938 49 49 0 27.062-21.938 49-49 49h-435c-27.062 0-49-21.938-49-49z" fill="#38393f"/><path d="m272.037 181h5.544v-40.752l18.36 26.928h.288l18.36-27v40.824h5.688v-50.4h-5.76l-18.36 27.504-18.36-27.504h-5.76zm72.372.792c6.408 0 10.224-3.24 12.744-7.272v6.48h5.472v-37.224h-5.472v21.312c0 6.984-4.824 11.664-11.16 11.664-6.552 0-10.296-4.32-10.296-11.232v-21.744h-5.544v23.112c0 8.856 5.256 14.904 14.256 14.904zm28.311-.792h5.544v-52.56h-5.544zm27.986.648c2.664 0 4.752-.576 6.696-1.584v-4.752c-1.944.936-3.528 1.296-5.4 1.296-3.744 0-6.264-1.656-6.264-6.192v-21.744h11.808v-4.896h-11.808v-11.232h-5.544v11.232h-5.184v4.896h5.184v22.464c0 7.56 4.536 10.512 10.512 10.512zm13.918-46.008h6.336v-6.12h-6.336zm.36 45.36h5.544v-37.224h-5.544zm15.53 11.52h5.544v-18.648c2.88 4.176 7.344 7.92 14.256 7.92 9 0 17.784-7.2 17.784-19.368v-.144c0-12.24-8.856-19.296-17.784-19.296-6.84 0-11.232 3.816-14.256 8.28v-7.488h-5.544zm18.792-15.696c-6.912 0-13.464-5.76-13.464-14.4v-.144c0-8.496 6.552-14.328 13.464-14.328 7.056 0 13.104 5.616 13.104 14.4v.144c0 9-5.904 14.328-13.104 14.328zm26.644 4.176h5.544v-52.56h-5.544zm26.618.792c6.552 0 10.872-3.024 13.464-6.408v5.616h5.328v-22.752c0-4.752-1.296-8.352-3.816-10.872-2.736-2.736-6.768-4.104-12.024-4.104-5.4 0-9.432 1.224-13.536 3.096l1.656 4.536c3.456-1.584 6.912-2.736 11.304-2.736 6.984 0 11.088 3.456 11.088 10.152v1.296c-3.312-.936-6.696-1.584-11.448-1.584-9.432 0-15.912 4.176-15.912 12.024v.144c0 7.632 6.984 11.592 13.896 11.592zm1.08-4.392c-5.04 0-9.36-2.736-9.36-7.416v-.144c0-4.68 3.888-7.704 10.872-7.704 4.536 0 8.208.792 10.944 1.584v3.6c0 5.904-5.616 10.08-12.456 10.08zm38.752 4.248c2.664 0 4.752-.576 6.696-1.584v-4.752c-1.944.936-3.528 1.296-5.4 1.296-3.744 0-6.264-1.656-6.264-6.192v-21.744h11.808v-4.896h-11.808v-11.232h-5.544v11.232h-5.184v4.896h5.184v22.464c0 7.56 4.536 10.512 10.512 10.512zm15.861-.648h5.544v-32.328h11.736v-4.752h-11.808v-3.024c0-5.328 2.16-7.92 6.48-7.92 1.872 0 3.384.36 5.4.936v-4.824c-1.8-.648-3.528-.936-6.12-.936-3.384 0-6.12 1.008-7.992 2.88-2.088 2.088-3.24 5.328-3.24 9.576v3.24h-5.112v4.824h5.112zm37.759.864c11.232 0 19.512-8.928 19.512-19.44v-.144c0-10.512-8.208-19.296-19.368-19.296-11.232 0-19.44 8.928-19.44 19.44v.144c0 10.512 8.136 19.296 19.296 19.296zm.144-4.968c-7.848 0-13.752-6.48-13.752-14.472v-.144c0-7.848 5.544-14.4 13.608-14.4 7.848 0 13.824 6.552 13.824 14.544v.144c0 7.848-5.616 14.328-13.68 14.328zm26.531 4.104h5.544v-14.832c0-11.232 6.624-17.064 14.76-17.064h.432v-5.976c-7.056-.288-12.456 4.176-15.192 10.368v-9.72h-5.544zm26.299 0h5.544v-21.24c0-6.84 4.464-11.736 10.368-11.736s9.576 4.104 9.576 11.088v21.888h5.472v-21.456c0-7.344 4.68-11.52 10.296-11.52 6.048 0 9.648 4.032 9.648 11.232v21.744h5.544v-23.04c0-9.216-5.256-14.976-13.824-14.976-6.48 0-10.44 3.312-13.104 7.416-2.016-4.176-5.904-7.416-11.952-7.416-6.264 0-9.576 3.384-12.024 7.056v-6.264h-5.544z" fill="#fff"/><g clip-path="url(#b)"><path d="m0 261c0-27.062 21.938-49 49-49h211c27.062 0 49 21.938 49 49 0 27.062-21.938 49-49 49h-211c-27.0619 0-49-21.938-49-49z" fill="#38393f"/><path d="m50.128 287h5.544v-40.752l18.36 26.928h.288l18.36-27v40.824h5.688v-50.4h-5.76l-18.36 27.504-18.36-27.504h-5.76zm75.684.864c11.232 0 19.512-8.928 19.512-19.44v-.144c0-10.512-8.208-19.296-19.368-19.296-11.232 0-19.44 8.928-19.44 19.44v.144c0 10.512 8.136 19.296 19.296 19.296zm.144-4.968c-7.848 0-13.752-6.48-13.752-14.472v-.144c0-7.848 5.544-14.4 13.608-14.4 7.848 0 13.824 6.552 13.824 14.544v.144c0 7.848-5.616 14.328-13.68 14.328zm46.331 4.896c9 0 17.784-7.2 17.784-19.368v-.144c0-12.24-8.856-19.296-17.784-19.296-6.84 0-11.232 3.816-14.256 8.28v-22.824h-5.544v52.56h5.544v-7.128c2.88 4.176 7.344 7.92 14.256 7.92zm-1.008-4.968c-6.912 0-13.464-5.76-13.464-14.4v-.144c0-8.496 6.552-14.328 13.464-14.328 7.056 0 13.104 5.616 13.104 14.4v.144c0 9-5.904 14.328-13.104 14.328zm26.284-41.184h6.336v-6.12h-6.336zm.36 45.36h5.544v-37.224h-5.544zm16.034 0h5.544v-52.56h-5.544zm31.802.864c7.056 0 11.592-2.808 15.336-6.984l-3.456-3.096c-3.024 3.168-6.624 5.256-11.736 5.256-6.624 0-12.312-4.536-13.104-12.6h29.52c.072-.648.072-1.08.072-1.8 0-10.872-6.336-19.656-17.352-19.656-10.296 0-17.856 8.64-17.856 19.368v.144c0 11.52 8.352 19.368 18.576 19.368zm-12.96-21.528c.72-7.272 5.616-12.672 12.096-12.672 7.416 0 11.304 5.904 11.88 12.672z" fill="#fff"/><path d="m373.192 220.958 3.839 12.539 12.772-2.945c12.113-2.793 20.524 11.777 12.051 20.864l-8.94 9.605 8.94 9.588c8.473 9.099.062 23.663-12.051 20.871l-12.772-2.946-3.839 12.511c-3.634 11.88-20.472 11.88-24.095 0l-3.838-12.511-12.773 2.946c-12.113 2.792-20.523-11.778-12.05-20.871l8.94-9.588-8.94-9.593c-8.473-9.099-.063-23.657 12.05-20.865l12.773 2.946 3.838-12.54c3.634-11.896 20.461-11.896 24.095-.011z" fill="#6b70fc"/><rect fill="#45dbb7" height="98" rx="8" width="98" x="413.29" y="212"/></g></svg>