<?xml version="1.0" encoding="UTF-8"?>
<!-- Generator: Adobe Illustrator 18.1.1, SVG Export Plug-In . SVG Version: 6.00 Build 0)  -->
<!DOCTYPE svg PUBLIC "-//W3C//DTD SVG 1.1//EN" "http://www.w3.org/Graphics/SVG/1.1/DTD/svg11.dtd">
<svg version="1.1" id="Layer_1" xmlns="http://www.w3.org/2000/svg" xmlns:xlink="http://www.w3.org/1999/xlink" x="0px" y="0px" viewBox="0 0 50 50" enable-background="new 0 0 50 50" xml:space="preserve">
<g>
	<path fill="#ED1D7F" d="M20.8,2.7C8.5,3.6-0.8,14.2,0,26.5s11.5,21.6,23.8,20.7c2.3-0.2,4.6-0.7,6.8-1.6c0.3-0.1,0.4-0.4,0.3-0.7   c-0.1-0.2-0.3-0.4-0.6-0.3c-0.1,0-0.1,0-0.2,0c-2.1,0.8-4.2,1.3-6.5,1.5C12.1,46.9,2,38.1,1.2,26.4s8-21.8,19.7-22.6   s21.8,8,22.6,19.7c0.1,0.8,0.1,1.7,0,2.5c0,0.1,0,0.3,0.1,0.4c0.1,0.1,0.2,0.2,0.4,0.2c0,0,0,0,0.1,0c0.3,0,0.5-0.2,0.5-0.5   c0-0.9,0-1.8,0-2.7C43.7,11.2,33.1,1.9,20.8,2.7z"/>
	<path fill="#ED1D7F" d="M46.3,30c-1.6-1.3-3.6-2.1-5.7-2.1c-0.3,1.8-0.8,3.4-1.5,5c0.4-0.1,0.8-0.1,1.2-0.1c1.2,0,2.2,0.4,3,1.1   c1.1,0.9,1.8,2.3,1.8,3.8c0,2.7-2.2,4.9-4.9,4.9c-2.7,0-4.9-2.2-4.9-4.9c0-1,0.3-2,0.9-2.8c5.4-7.7,3.6-18.3-4.2-23.8   c-7.7-5.4-18.3-3.6-23.8,4.2c-5.4,7.7-3.6,18.3,4.2,23.8c5.2,3.7,11.8,4,17.1,1.4c-0.5-1.8-0.5-3.8,0-5.7   c-4.1,3.1-9.9,3.4-14.4,0.3c-5.5-3.9-6.8-11.5-3-17c3.9-5.5,11.5-6.8,17-3c5.5,3.9,6.8,11.5,3,17c-1.1,1.6-1.8,3.5-1.8,5.6   c0,5.4,4.4,9.7,9.7,9.7S50,43,50,37.6C50,34.5,48.6,31.8,46.3,30z"/>
</g>
</svg>